# xmcd
#
# Track frame offsets: 
#        150
#        30625
#        50575
#        79314
#        102428
#        126447
#        152112
#        177017
#
# Disc length: 2611 seconds
#
# Revision: 0
# Processed by: cddbd v1.5.2PL0 Copyright (c) Steve Scherf et al.
# Submitted via: ExactAudioCopy v1.3
#
DISCID=660a3108
DTITLE=Barrelhouse - Hard To Cover
DYEAR=1977
DGENRE=Chicago Blues
TTITLE0=Every Night Is Saturday Night
TTITLE1=Ain’t Good For Nothing
TTITLE2=Memories
TTITLE3=You Don’t Have To Go
TTITLE4=Blue River Rising
TTITLE5=One More Lonely Night
TTITLE6=Don’t Hold Your Breath
TTITLE7=Tennessee Flat Top Box
EXTD=
EXTT0=
EXTT1=
EXTT2=
EXTT3=
EXTT4=
EXTT5=
EXTT6=
EXTT7=
PLAYORDER=
